<svg xmlns="http://www.w3.org/2000/svg" width="16" height="16" viewBox="0 0 16 16" fill="none">
  <path fill-rule="evenodd" clip-rule="evenodd" d="M8.00004 6.66668C9.4728 6.66668 10.6667 5.47277 10.6667 4.00001C10.6667 2.52725 9.4728 1.33334 8.00004 1.33334C6.52728 1.33334 5.33337 2.52725 5.33337 4.00001C5.33337 5.47277 6.52728 6.66668 8.00004 6.66668ZM8.00004 5.33334C8.73642 5.33334 9.33337 4.73639 9.33337 4.00001C9.33337 3.26363 8.73642 2.66668 8.00004 2.66668C7.26366 2.66668 6.66671 3.26363 6.66671 4.00001C6.66671 4.73639 7.26366 5.33334 8.00004 5.33334Z" fill="#162029"/>
  <path d="M2.90033 10.2899C3.80354 8.97137 5.41392 8.00001 8.00033 8.00001C8.81784 8.00001 9.54109 8.09654 10.1785 8.27384C10.5333 8.37249 10.7409 8.74003 10.6422 9.09476C10.5435 9.44948 10.176 9.65707 9.82128 9.55841C9.31467 9.41751 8.71314 9.33334 8.00033 9.33334C5.78675 9.33334 4.61935 10.1398 4.00034 11.0434C3.5018 11.7712 3.31537 12.6263 3.30026 13.3333H9.33325C9.70144 13.3333 9.99991 13.6318 9.99991 14C9.99991 14.3682 9.70144 14.6667 9.33325 14.6667H2.667C2.33078 14.6667 2.04718 14.4163 2.00548 14.0827C1.87967 13.0762 2.02483 11.568 2.90033 10.2899Z" fill="#162029"/>
  <path d="M12.6667 14.6667C12.2985 14.6667 12 14.3682 12 14V12.6667H10.6667C10.2985 12.6667 10 12.3682 10 12C10 11.6318 10.2985 11.3333 10.6667 11.3333H12V10C12 9.63182 12.2985 9.33334 12.6667 9.33334C13.0349 9.33334 13.3334 9.63182 13.3334 10V11.3333H14.6667C15.0349 11.3333 15.3334 11.6318 15.3334 12C15.3334 12.3682 15.0349 12.6667 14.6667 12.6667H13.3334V14C13.3334 14.3682 13.0349 14.6667 12.6667 14.6667Z" fill="#162029"/>
</svg>