<svg xmlns="http://www.w3.org/2000/svg" width="20" height="20" viewBox="0 0 20 20" fill="none">
  <path d="M15.833 2.15251C15.833 1.69227 15.4599 1.31918 14.9997 1.31918C14.5394 1.31918 14.1663 1.69227 14.1663 2.15251V15.974L11.4223 13.2299C11.0968 12.9045 10.5692 12.9045 10.2438 13.2299C9.91832 13.5554 9.91832 14.083 10.2438 14.4084L14.4104 18.5751C14.7359 18.9005 15.2635 18.9005 15.5889 18.5751L19.7556 14.4084C20.081 14.083 20.081 13.5554 19.7556 13.2299C19.4302 12.9045 18.9025 12.9045 18.5771 13.2299L15.833 15.974V2.15251Z" fill="#162029"/>
  <path d="M1.70973 9.23658C1.22913 9.23659 0.90186 8.74937 1.08364 8.30448L3.71303 1.78869C3.82751 1.50501 4.10286 1.3193 4.40877 1.31928C4.62681 1.31927 4.83148 1.31923 5.04943 1.31922C5.35641 1.31919 5.63243 1.50634 5.74607 1.79152L8.35319 8.33407C8.4998 8.77392 8.20429 9.23659 7.74065 9.23659C7.66467 9.23659 7.58805 9.23659 7.51045 9.23659C7.19591 9.23659 6.90827 9.0545 6.79208 8.76221C6.63815 8.37497 6.50235 7.97859 6.35326 7.59159H3.1487L2.72141 8.70242C2.59761 9.02424 2.2885 9.23658 1.94369 9.23658C1.86707 9.23658 1.78867 9.23658 1.70973 9.23658ZM5.86797 6.11275L4.75999 3.43593L3.56949 6.11275H5.86797Z" fill="#162029"/>
  <path d="M2.06218 18.8192C1.69399 18.8192 1.39661 18.5207 1.39661 18.1526C1.39661 17.9141 1.39661 17.6769 1.39661 17.5653C1.39661 17.1429 1.56216 16.983 1.82889 16.6393C3.15446 14.9313 3.93777 13.9212 5.1607 12.3724C4.64576 12.3724 2.9501 12.3724 1.99695 12.3724C1.62876 12.3724 1.33134 12.0739 1.33133 11.7058L1.33133 11.5692C1.33133 11.201 1.628 10.9026 1.99619 10.9026C3.31187 10.9026 5.72249 10.9026 6.82788 10.9026C7.15005 10.9026 7.40965 11.1637 7.40965 11.4859C7.40965 11.6327 7.40965 11.7736 7.40965 11.8626C7.40965 12.2668 7.16457 12.5666 7.06346 12.6991L3.63247 17.1941C4.15071 17.1941 5.86313 17.1941 6.89619 17.1941C7.34496 17.1941 7.70827 17.5579 7.70827 18.0066C7.70828 18.4554 7.34455 18.8192 6.89577 18.8192C5.53267 18.8192 3.20113 18.8192 2.06218 18.8192Z" fill="#162029"/>
</svg>