<svg xmlns="http://www.w3.org/2000/svg" width="20" height="20" viewBox="0 0 20 20" fill="none">
  <path fill-rule="evenodd" clip-rule="evenodd" d="M9.99992 3.33329C7.23849 3.33329 4.99992 5.57187 4.99992 8.33329V14.1666C4.99992 14.6269 4.62682 15 4.16659 15C3.70635 15 3.33325 14.6269 3.33325 14.1666V8.33329C3.33325 4.65139 6.31802 1.66663 9.99992 1.66663C13.6818 1.66663 16.6666 4.65139 16.6666 8.33329V13.3333C16.6666 14.7727 16.1832 16.0369 15.2767 16.9434C14.3702 17.8499 13.106 18.3333 11.6666 18.3333C10.2272 18.3333 8.96298 17.8499 8.0565 16.9434C7.15001 16.0369 6.66659 14.7727 6.66659 13.3333V8.33329C6.66659 7.69726 6.95963 6.89342 7.47419 6.25021C8.00987 5.58061 8.8568 4.99996 9.99992 4.99996C11.143 4.99996 11.99 5.58061 12.5256 6.25021C13.0402 6.89342 13.3333 7.69726 13.3333 8.33329V14.1666C13.3333 14.6269 12.9602 15 12.4999 15C12.0397 15 11.6666 14.6269 11.6666 14.1666V8.33329C11.6666 8.13599 11.543 7.68984 11.2242 7.29137C10.9265 6.9193 10.5235 6.66663 9.99992 6.66663C9.47637 6.66663 9.0733 6.9193 8.77564 7.29137C8.45687 7.68984 8.33325 8.13599 8.33325 8.33329V13.3333C8.33325 14.3939 8.68316 15.213 9.23501 15.7649C9.78686 16.3167 10.606 16.6666 11.6666 16.6666C12.7272 16.6666 13.5463 16.3167 14.0982 15.7649C14.65 15.213 14.9999 14.3939 14.9999 13.3333V8.33329C14.9999 5.57187 12.7613 3.33329 9.99992 3.33329Z" fill="#162029"/>
</svg>