<svg xmlns="http://www.w3.org/2000/svg" width="20" height="20" viewBox="0 0 20 20" fill="none">
  <path d="M14.1667 13.3333C14.6269 13.3333 15 12.9602 15 12.5C15 12.0397 14.6269 11.6666 14.1667 11.6666C13.7065 11.6666 13.3334 12.0397 13.3334 12.5C13.3334 12.9602 13.7065 13.3333 14.1667 13.3333Z" fill="#646E7D"/>
  <path fill-rule="evenodd" clip-rule="evenodd" d="M5.00002 2.49996C5.00002 2.03972 5.37312 1.66663 5.83335 1.66663C6.29359 1.66663 6.66669 2.03972 6.66669 2.49996V3.33329H13.3334V2.49996C13.3334 2.03972 13.7065 1.66663 14.1667 1.66663C14.6269 1.66663 15 2.03972 15 2.49996V3.33329H15.8334C17.2141 3.33329 18.3334 4.45258 18.3334 5.83329V14.1666C18.3334 15.5473 17.2141 16.6666 15.8334 16.6666H4.16669C2.78598 16.6666 1.66669 15.5473 1.66669 14.1666V5.83329C1.66669 4.45258 2.78598 3.33329 4.16669 3.33329H5.00002V2.49996ZM13.3334 4.99996V5.83329C13.3334 6.29353 13.7065 6.66663 14.1667 6.66663C14.6269 6.66663 15 6.29353 15 5.83329V4.99996H15.8334C16.2936 4.99996 16.6667 5.37305 16.6667 5.83329V8.33329H3.33335V5.83329C3.33335 5.37305 3.70645 4.99996 4.16669 4.99996H5.00002V5.83329C5.00002 6.29353 5.37312 6.66663 5.83335 6.66663C6.29359 6.66663 6.66669 6.29353 6.66669 5.83329V4.99996H13.3334ZM3.33335 9.99996H16.6667V14.1666C16.6667 14.6269 16.2936 15 15.8334 15H4.16669C3.70645 15 3.33335 14.6269 3.33335 14.1666V9.99996Z" fill="#646E7D"/>
</svg>