<svg xmlns="http://www.w3.org/2000/svg" width="16" height="16" viewBox="0 0 16 16" fill="none">
  <path fill-rule="evenodd" clip-rule="evenodd" d="M2.55406 2.56361C2.84664 2.2711 3.32095 2.27115 3.61347 2.56374L7.97204 6.96991L12.3878 2.55266C12.6802 2.25998 13.1545 2.25976 13.4472 2.55218C13.7399 2.84459 13.7401 3.31891 13.4477 3.61159L9.03131 8.02945L13.4367 12.3882C13.7293 12.6808 13.7292 13.1551 13.4366 13.4476C13.144 13.7401 12.6697 13.74 12.3772 13.4475L7.97238 9.08933L3.61268 13.447C3.32026 13.7397 2.84595 13.7399 2.55327 13.4475C2.26059 13.155 2.26037 12.6807 2.55279 12.388L6.9131 8.0298L2.55393 3.62302C2.26142 3.33043 2.26147 2.85612 2.55406 2.56361Z" fill="#162029"/>
</svg>