<svg xmlns="http://www.w3.org/2000/svg" width="20" height="20" viewBox="0 0 20 20" fill="none">
  <path fill-rule="evenodd" clip-rule="evenodd" d="M4.99992 16.6666H14.9999L14.9999 6.52365L11.8096 3.33329H4.99992V16.6666ZM4.99992 1.66663C4.07944 1.66663 3.33325 2.41282 3.33325 3.33329V16.6666C3.33325 17.5871 4.07944 18.3333 4.99992 18.3333H14.9999C15.9204 18.3333 16.6666 17.5871 16.6666 16.6666V6.52365C16.6666 6.08162 16.491 5.6577 16.1784 5.34514L12.9881 2.15478C12.6755 1.84222 12.2516 1.66663 11.8096 1.66663H4.99992Z" fill="#162029"/>
  <path d="M6.66659 14.1666C6.66659 13.7064 7.03968 13.3333 7.49992 13.3333H12.4999C12.9602 13.3333 13.3333 13.7064 13.3333 14.1666C13.3333 14.6269 12.9602 15 12.4999 15H7.49992C7.03968 15 6.66659 14.6269 6.66659 14.1666Z" fill="#162029"/>
  <path d="M6.66659 10.8333C6.66659 10.3731 7.03968 9.99996 7.49992 9.99996H10.8333C11.2935 9.99996 11.6666 10.3731 11.6666 10.8333C11.6666 11.2935 11.2935 11.6666 10.8333 11.6666H7.49992C7.03968 11.6666 6.66659 11.2935 6.66659 10.8333Z" fill="#162029"/>
  <path d="M6.66659 7.49996C6.66659 7.03972 7.03968 6.66663 7.49992 6.66663H9.16658C9.62682 6.66663 9.99992 7.03972 9.99992 7.49996C9.99992 7.9602 9.62682 8.33329 9.16658 8.33329H7.49992C7.03968 8.33329 6.66659 7.9602 6.66659 7.49996Z" fill="#162029"/>
</svg>