<svg xmlns="http://www.w3.org/2000/svg" width="16" height="16" viewBox="0 0 16 16" fill="none">
  <path fill-rule="evenodd" clip-rule="evenodd" d="M2.66669 2.66671C2.66669 1.93033 3.26364 1.33337 4.00002 1.33337H9.44773C9.80136 1.33337 10.1405 1.47385 10.3905 1.7239L12.9428 4.27618C13.1929 4.52623 13.3334 4.86537 13.3334 5.21899V13.3334C13.3334 14.0698 12.7364 14.6667 12 14.6667H4.00002C3.26364 14.6667 2.66669 14.0698 2.66669 13.3334V2.66671ZM5.33335 5.33337C4.96516 5.33337 4.66669 5.63185 4.66669 6.00004C4.66669 6.36823 4.96516 6.66671 5.33335 6.66671H6.66669C7.03488 6.66671 7.33335 6.36823 7.33335 6.00004C7.33335 5.63185 7.03488 5.33337 6.66669 5.33337H5.33335ZM4.66669 8.66671C4.66669 8.29852 4.96516 8.00004 5.33335 8.00004H8.00002C8.36821 8.00004 8.66669 8.29852 8.66669 8.66671C8.66669 9.0349 8.36821 9.33337 8.00002 9.33337H5.33335C4.96516 9.33337 4.66669 9.0349 4.66669 8.66671ZM4.66669 11.3334C4.66669 10.9652 4.96516 10.6667 5.33335 10.6667H9.33335C9.70154 10.6667 10 10.9652 10 11.3334C10 11.7016 9.70154 12 9.33335 12H5.33335C4.96516 12 4.66669 11.7016 4.66669 11.3334Z" fill="#162029"/>
</svg>