<svg xmlns="http://www.w3.org/2000/svg" width="20" height="20" viewBox="0 0 20 20" fill="none">
  <path fill-rule="evenodd" clip-rule="evenodd" d="M10.6838 1.27311C10.3994 1.00578 9.93953 0.900553 9.52625 1.13113C7.98917 1.98869 6.4432 3.7223 5.25299 5.55437C4.06149 7.38841 3.12317 9.48056 2.92281 11.1507C2.70494 12.9669 3.19809 14.9587 4.39689 16.508C5.61247 18.079 7.53351 19.1667 10.0783 19.1667C11.6292 19.1667 12.8844 18.7767 13.8745 18.1197C14.8603 17.4655 15.537 16.5777 15.9856 15.6496C16.8659 13.8283 16.9149 11.7551 16.644 10.6371C16.39 9.58904 15.7866 8.39707 15.1308 7.37183C14.4761 6.34823 13.7055 5.39207 13.0542 4.8456C12.7407 4.58261 12.3129 4.54485 11.9683 4.72854C11.6326 4.90749 11.4325 5.26443 11.4509 5.64767C11.4671 5.98429 11.4801 6.37827 11.425 6.72591C11.4109 6.81468 11.3944 6.88781 11.3771 6.94791C11.1411 6.80828 10.9696 6.63617 10.841 6.44602C10.6358 6.14263 10.5101 5.74777 10.4642 5.27375C10.371 4.30909 10.6252 3.18658 10.9352 2.35566C11.0863 1.9506 10.9586 1.53137 10.6838 1.27311ZM8.86651 3.72209C8.7828 4.27962 8.75023 4.8643 8.80531 5.43411C8.86955 6.09872 9.05704 6.78331 9.46045 7.37977C9.8722 7.98854 10.479 8.46 11.2951 8.72553C11.5375 8.8044 11.8425 8.79718 12.1136 8.63074C12.666 8.29169 12.9065 7.72889 13.0179 7.25841C13.2526 7.56346 13.4935 7.90521 13.7268 8.26991C14.3375 9.22468 14.8324 10.2379 15.0242 11.0296C15.208 11.7879 15.1905 13.4647 14.485 14.9243C14.1407 15.6367 13.6446 16.272 12.953 16.7309C12.2656 17.187 11.3388 17.5 10.0783 17.5C8.05353 17.5 6.61758 16.6545 5.71503 15.488C4.7957 14.2999 4.40958 12.75 4.57762 11.3493C4.7346 10.0406 5.52272 8.19849 6.65061 6.46235C7.3329 5.41212 8.10179 4.45885 8.86651 3.72209Z" fill="#162029"/>
  <path d="M7.54422 13.0314C7.29913 14.2949 8.07069 15.8333 9.99394 15.8333C11.9184 15.8333 12.7017 14.2949 12.4565 13.0128C12.2312 11.8344 10.9552 10.33 10.3059 9.55242C10.1397 9.35341 9.83133 9.33927 9.6623 9.53586C8.97888 10.3307 7.75933 11.9225 7.54422 13.0314Z" fill="#162029"/>
</svg>