<svg xmlns="http://www.w3.org/2000/svg" width="16" height="16" viewBox="0 0 16 16" fill="none">
  <path d="M11.1952 13.8047C11.4556 14.0651 11.8777 14.0651 12.138 13.8047L15.138 10.8047C15.3984 10.5444 15.3984 10.1223 15.138 9.86193C14.8777 9.60158 14.4556 9.60158 14.1952 9.86193L12.3333 11.7239L12.3333 2.66667C12.3333 2.29848 12.0348 2 11.6666 2C11.2984 2 11 2.29848 11 2.66667L11 11.7239L9.13803 9.86193C8.87768 9.60158 8.45557 9.60158 8.19522 9.86193C7.93487 10.1223 7.93487 10.5444 8.19522 10.8047L11.1952 13.8047Z" fill="#162029"/>
  <path d="M4.8047 2.19526C4.54435 1.93491 4.12224 1.93491 3.86189 2.19526L0.861888 5.19526C0.601539 5.45561 0.601539 5.87772 0.861888 6.13807C1.12224 6.39842 1.54435 6.39842 1.8047 6.13807L3.66663 4.27614V13.3333C3.66663 13.7015 3.9651 14 4.33329 14C4.70148 14 4.99996 13.7015 4.99996 13.3333V4.27614L6.86189 6.13807C7.12224 6.39842 7.54435 6.39842 7.8047 6.13807C8.06505 5.87772 8.06505 5.45561 7.8047 5.19526L4.8047 2.19526Z" fill="#162029"/>
</svg>