<svg xmlns="http://www.w3.org/2000/svg" width="20" height="20" viewBox="0 0 20 20" fill="none">
  <path fill-rule="evenodd" clip-rule="evenodd" d="M19.5505 2.92326L17.0619 2.94071L17.0785 0.451416C14.4157 0.901287 12.6295 2.02758 12.4293 5.01825C11.4649 4.47597 10.3519 4.16668 9.16667 4.16668C5.48477 4.16668 2.5 7.15145 2.5 10.8333C2.5 14.5152 5.48477 17.5 9.16667 17.5C12.8486 17.5 15.8333 14.5152 15.8333 10.8333C15.8333 9.84384 15.6178 8.9047 15.231 8.0603L13.9427 9.34899C14.0882 9.81796 14.1667 10.3165 14.1667 10.8333C14.1667 13.5948 11.9281 15.8333 9.16667 15.8333C6.40524 15.8333 4.16667 13.5948 4.16667 10.8333C4.16667 8.07192 6.40524 5.83334 9.16667 5.83334C10.2465 5.83334 11.2464 6.17566 12.0638 6.7577L10.2445 8.57698C9.91815 8.4208 9.55262 8.33334 9.16667 8.33334C7.78595 8.33334 6.66667 9.45263 6.66667 10.8333C6.66667 12.2141 7.78595 13.3333 9.16667 13.3333C10.5474 13.3333 11.6667 12.2141 11.6667 10.8333C11.6667 10.4474 11.5792 10.0819 11.423 9.7555L13.5948 7.58372C16.845 7.74652 18.9853 6.27319 19.5505 2.92326ZM14.1818 5.93214C15.3323 5.93471 17.0288 5.87529 17.485 4.60445L15.3841 4.61917L15.3981 2.51724C14.0622 2.99698 14.0678 4.61075 14.0707 5.82105L14.1818 5.93214Z" fill="#162029"/>
</svg>