<svg width="24" height="24" viewBox="0 0 24 24" fill="none" xmlns="http://www.w3.org/2000/svg">
<path d="M9 3C9 2.44772 9.44772 2 10 2H14C14.5523 2 15 2.44772 15 3V4H20C20.5523 4 21 4.44772 21 5C21 5.55228 20.5523 6 20 6H4C3.44772 6 3 5.55228 3 5C3 4.44772 3.44772 4 4 4H9V3Z" fill="#F77272"/>
<path fill-rule="evenodd" clip-rule="evenodd" d="M18 8H6C5.44772 8 5 8.44772 5 9V19C5 20.6569 6.34315 22 8 22H16C17.6569 22 19 20.6569 19 19V9C19 8.44772 18.5523 8 18 8ZM10 10C9.44772 10 9 10.4477 9 11V17C9 17.5523 9.44772 18 10 18C10.5523 18 11 17.5523 11 17V11C11 10.4477 10.5523 10 10 10ZM13 11C13 10.4477 13.4477 10 14 10C14.5523 10 15 10.4477 15 11V17C15 17.5523 14.5523 18 14 18C13.4477 18 13 17.5523 13 17V11Z" fill="#F77272"/>
</svg>
