<svg xmlns="http://www.w3.org/2000/svg" width="16" height="16" viewBox="0 0 16 16" fill="none">
  <path d="M4.19528 5.80466C4.45563 6.06501 4.87774 6.06501 5.13809 5.80466L7.33335 3.60939V9.99992C7.33335 10.3681 7.63183 10.6666 8.00002 10.6666C8.36821 10.6666 8.66669 10.3681 8.66669 9.99992V3.60939L10.8619 5.80466C11.1223 6.06501 11.5444 6.06501 11.8048 5.80466C12.0651 5.54431 12.0651 5.1222 11.8048 4.86185L8.47143 1.52851C8.40751 1.4646 8.33384 1.41637 8.25521 1.38384C8.1766 1.35124 8.09041 1.33325 8.00002 1.33325C7.82941 1.33325 7.65879 1.39834 7.52862 1.52851L4.19528 4.86185C3.93493 5.1222 3.93493 5.54431 4.19528 5.80466Z" fill="#162029"/>
  <path d="M4.00002 10.6666C4.00002 10.2984 3.70154 9.99992 3.33335 9.99992C2.96516 9.99992 2.66669 10.2984 2.66669 10.6666V12.6666C2.66669 13.7712 3.56212 14.6666 4.66669 14.6666H11.3334C12.4379 14.6666 13.3334 13.7712 13.3334 12.6666V10.6666C13.3334 10.2984 13.0349 9.99992 12.6667 9.99992C12.2985 9.99992 12 10.2984 12 10.6666V12.6666C12 13.0348 11.7015 13.3333 11.3334 13.3333H4.66669C4.2985 13.3333 4.00002 13.0348 4.00002 12.6666V10.6666Z" fill="#162029"/>
</svg>