<svg xmlns="http://www.w3.org/2000/svg" width="20" height="20" viewBox="0 0 20 20" fill="none">
  <path fill-rule="evenodd" clip-rule="evenodd"
    d="M3.73046 12.6751C4.82572 11.1483 6.76547 9.99996 9.9999 9.99996C13.2343 9.99996 15.1741 11.1483 16.2693 12.6751C17.3279 14.1507 17.4965 15.8421 17.4998 16.7779C17.5032 17.719 16.7143 18.3333 15.9054 18.3333H4.09444C3.28554 18.3333 2.49656 17.719 2.49995 16.7779C2.50332 15.8421 2.67192 14.1507 3.73046 12.6751ZM4.16809 16.6666H15.8317C15.8145 15.8732 15.6438 14.6625 14.9151 13.6466C14.1861 12.6304 12.7957 11.6666 9.9999 11.6666C7.20414 11.6666 5.81367 12.6304 5.08472 13.6466C4.35598 14.6625 4.1853 15.8732 4.16809 16.6666Z"
    fill="current-color" />
  <path fill-rule="evenodd" clip-rule="evenodd"
    d="M9.99998 6.66663C10.9205 6.66663 11.6666 5.92043 11.6666 4.99996C11.6666 4.07948 10.9205 3.33329 9.99998 3.33329C9.07951 3.33329 8.33331 4.07948 8.33331 4.99996C8.33331 5.92043 9.07951 6.66663 9.99998 6.66663ZM9.99998 8.33329C11.8409 8.33329 13.3333 6.84091 13.3333 4.99996C13.3333 3.15901 11.8409 1.66663 9.99998 1.66663C8.15903 1.66663 6.66665 3.15901 6.66665 4.99996C6.66665 6.84091 8.15903 8.33329 9.99998 8.33329Z"
    fill="current-color" />
</svg>